<?xml version="1.0" encoding="UTF-8" standalone="no"?>
<!--?xml version="1.0" encoding="utf-8"?-->

<!-- Generator: Adobe Illustrator 18.1.1, SVG Export Plug-In . SVG Version: 6.00 Build 0)  -->

<svg
   version="1.1"
   id="_x32_"
   x="0px"
   y="0px"
   viewBox="0 0 512 512"
   style="width: 128px; height: 128px; opacity: 1;"
   xml:space="preserve"
   sodipodi:docname="arrow3.svg"
   inkscape:version="1.1 (c68e22c387, 2021-05-23)"
   xmlns:inkscape="http://www.inkscape.org/namespaces/inkscape"
   xmlns:sodipodi="http://sodipodi.sourceforge.net/DTD/sodipodi-0.dtd"
   xmlns="http://www.w3.org/2000/svg"
   xmlns:svg="http://www.w3.org/2000/svg"><defs
   id="defs28" /><sodipodi:namedview
   id="namedview26"
   pagecolor="#505050"
   bordercolor="#eeeeee"
   borderopacity="1"
   inkscape:pageshadow="0"
   inkscape:pageopacity="0"
   inkscape:pagecheckerboard="0"
   showgrid="false"
   inkscape:zoom="1.1490485"
   inkscape:cx="234.54188"
   inkscape:cy="261.52072"
   inkscape:window-width="1920"
   inkscape:window-height="1017"
   inkscape:window-x="1912"
   inkscape:window-y="-8"
   inkscape:window-maximized="1"
   inkscape:current-layer="g23" />
<style
   type="text/css"
   id="style19">
	.st0{fill:#4B4B4B;}
</style>
<g
   id="g23">
	<path
   class="st0"
   d="m 378.95359,242.46093 c -25.15584,-35.4501 -60.26624,-57.5217 -98.7104,-57.4965 h -32.65664 v -81.8361 c 0,-7.252199 -2.88384,-13.895099 -7.47136,-17.212499 -4.59008,-3.3093 -10.112,-2.7423 -14.30528,1.476 L 97.909114,216.17193 c -3.6096,3.6342 -5.74912,9.4941 -5.74912,15.7374 0,6.2433 2.13952,12.1032 5.74912,15.7374 l 127.900156,128.7792 c 4.19328,4.2183 9.7152,4.7844 14.30528,1.476 4.58816,-3.3174 7.47136,-9.9612 7.47136,-17.2125 v -81.8361 h 32.65664 c 20.2176,0.0171 38.21312,11.3859 51.49888,29.9979 13.23264,18.6795 21.3152,43.9938 21.33248,72.4257 0,25.9227 14.94592,46.944 33.3824,46.944 18.43648,0 33.38368,-21.0204 33.38368,-46.944 0.0179,-54.0621 -15.67488,-103.4325 -40.8864,-138.816 z"
   style="fill:#4b4b4b;stroke-width:0.758947"
   id="path21" />
</g>
</svg>
